# xmcd
#
# Track frame offsets:
#	150
#	12074
#	30538
#	46144
#	61481
#	76265
#	93361
#	108025
#	124369
#	140148
#	155055
#	175514
#	188648
#	212339
#	227933
#	246714
#	267426
#	286550
#
# Disc length: 4097 seconds
#
# Revision: 0
# Processed by: cddbd v1.5.1PL0 Copyright (c) Steve Scherf et al.
# Submitted via: dBpowerAMP V4.0
#
DISCID=f10fff12
DTITLE=Martina McBride - Greatest Hits
DYEAR=2001
DGENRE=Country
TTITLE0=My Baby Loves Me
TTITLE1=Life # 9 
TTITLE2=Independence Day 
TTITLE3=Strangers
TTITLE4=Safe In The Arms Of Love
TTITLE5=Wild Angels
TTITLE6=Valentine
TTITLE7=A Broken Wing 
TTITLE8=Happy Girl
TTITLE9=Wrong Again
TTITLE10=Whatever You Say
TTITLE11=I Love You
TTITLE12=Love's The Only House
TTITLE13=There You Are
TTITLE14=When God-Fearin' Women Get The Blues
TTITLE15=Where Would You Be
TTITLE16=Concrete Angel
TTITLE17=Blessed 
EXTD=
EXTT0=
EXTT1=
EXTT2=
EXTT3=
EXTT4=
EXTT5=
EXTT6=
EXTT7=
EXTT8=
EXTT9=
EXTT10=
EXTT11=
EXTT12=
EXTT13=
EXTT14=
EXTT15=
EXTT16=
EXTT17=
PLAYORDER=
